<svg width="9" height="12" viewBox="0 0 9 12" fill="none" xmlns="http://www.w3.org/2000/svg">
<path d="M7.93296 7.82988C7.74969 9.70413 6.42062 11.5784 4.08572 11.5784C0.12516 11.5784 -0.684387 7.11601 1.87391 4.83109C3.92683 2.99747 4.11961 2.75616 3.98198 0.486779C3.97881 0.434578 4.03954 0.405538 4.07382 0.443717C5.37475 1.89259 5.69743 3.38449 5.04187 6.60668C5.03316 6.6495 5.07215 6.6869 5.11104 6.67045C6.06902 6.26519 6.81047 4.93372 6.8786 3.86411C6.88196 3.81134 6.94536 3.78887 6.97443 3.83221C7.52967 4.65973 8.0615 6.51535 7.93296 7.82988Z" fill="#FF8B37"/>
<path fill-rule="evenodd" clip-rule="evenodd" d="M3.57858 0.513322C3.55325 0.0956864 4.05649 -0.192806 4.36914 0.1554C5.06129 0.926265 5.51225 1.73329 5.68993 2.78709C5.83144 3.6263 5.79573 4.60016 5.60067 5.80665C5.73974 5.65747 5.87012 5.48355 5.98691 5.29095C6.27073 4.82288 6.4464 4.28955 6.47529 3.83608C6.48876 3.62451 6.62716 3.46728 6.79122 3.41127C6.96109 3.35327 7.17799 3.39974 7.30589 3.59036C7.62069 4.05953 7.90808 4.78208 8.10109 5.54011C8.29467 6.30041 8.40633 7.14712 8.33539 7.87259C8.13653 9.90634 6.67784 12 4.08588 12C1.93465 12 0.57554 10.7688 0.146126 9.17562C-0.275708 7.61056 0.216718 5.75604 1.61104 4.51071C2.66113 3.5728 3.14809 3.11144 3.39128 2.62675C3.61978 2.17136 3.64802 1.65825 3.57858 0.513322L3.98214 0.486703L3.57858 0.513322ZM4.41876 1.59702C4.40398 2.14259 4.32247 2.59 4.10783 3.01779C3.77581 3.6795 3.13992 4.2556 2.13709 5.1513L2.13709 5.15131C0.973115 6.1909 0.591168 7.71003 0.924674 8.94738C1.2506 10.1566 2.27654 11.1566 4.08588 11.1566C6.16371 11.1566 7.36317 9.50176 7.53085 7.78702C7.58844 7.19796 7.49846 6.45959 7.31945 5.75657C7.24395 5.46002 7.1549 5.17873 7.05918 4.92565C6.95763 5.20892 6.82571 5.48563 6.67043 5.74172C6.32851 6.30561 5.84531 6.8149 5.26319 7.06115C4.88814 7.21981 4.57865 6.85246 4.64647 6.51908C4.97035 4.92719 5.04146 3.81107 4.89343 2.93316C4.80954 2.43562 4.65339 2.00388 4.41876 1.59702Z" fill="#FF8B37"/>
</svg>
