<svg width="14" height="14" viewBox="0 0 14 14" fill="none" xmlns="http://www.w3.org/2000/svg">
<path d="M6.06659 10.0666L10.7666 5.36659L9.83325 4.43325L6.06659 8.19992L4.16658 6.29992L3.23325 7.23325L6.06659 10.0666ZM6.99992 13.6666C6.0777 13.6666 5.21103 13.4915 4.39992 13.1413C3.58881 12.7915 2.88325 12.3166 2.28325 11.7166C1.68325 11.1166 1.20836 10.411 0.858585 9.59992C0.508363 8.78881 0.333252 7.92214 0.333252 6.99992C0.333252 6.0777 0.508363 5.21103 0.858585 4.39992C1.20836 3.58881 1.68325 2.88325 2.28325 2.28325C2.88325 1.68325 3.58881 1.20814 4.39992 0.857919C5.21103 0.508141 6.0777 0.333252 6.99992 0.333252C7.92214 0.333252 8.78881 0.508141 9.59992 0.857919C10.411 1.20814 11.1166 1.68325 11.7166 2.28325C12.3166 2.88325 12.7915 3.58881 13.1413 4.39992C13.4915 5.21103 13.6666 6.0777 13.6666 6.99992C13.6666 7.92214 13.4915 8.78881 13.1413 9.59992C12.7915 10.411 12.3166 11.1166 11.7166 11.7166C11.1166 12.3166 10.411 12.7915 9.59992 13.1413C8.78881 13.4915 7.92214 13.6666 6.99992 13.6666ZM6.99992 12.3333C8.48881 12.3333 9.74992 11.8166 10.7833 10.7833C11.8166 9.74992 12.3333 8.48881 12.3333 6.99992C12.3333 5.51103 11.8166 4.24992 10.7833 3.21658C9.74992 2.18325 8.48881 1.66659 6.99992 1.66659C5.51103 1.66659 4.24992 2.18325 3.21658 3.21658C2.18325 4.24992 1.66659 5.51103 1.66659 6.99992C1.66659 8.48881 2.18325 9.74992 3.21658 10.7833C4.24992 11.8166 5.51103 12.3333 6.99992 12.3333Z" fill="#2CDF53"/>
</svg>
