<svg width="78" height="51" viewBox="0 0 78 51" fill="none" xmlns="http://www.w3.org/2000/svg">
<path d="M63.4036 25.1793C63.4036 38.8175 52.5398 49.8586 39.1567 49.8586C25.7735 49.8586 14.9097 38.8175 14.9097 25.1793C14.9097 11.5411 25.7735 0.5 39.1567 0.5C52.5398 0.5 63.4036 11.5411 63.4036 25.1793Z" stroke="#39E681"/>
<path d="M7.01195 18.9868L11.4036 18.9868L11.4036 32.0107L7.01195 32.0107C3.4155 32.0107 0.5 29.0952 0.5 25.4988C0.5 21.9023 3.4155 18.9868 7.01195 18.9868Z" stroke="#39E681"/>
<path d="M70.988 18.9868L66.5964 18.9868L66.5964 32.0107L70.9881 32.0107C74.5845 32.0107 77.5 29.0952 77.5 25.4988C77.5 21.9023 74.5845 18.9868 70.988 18.9868Z" stroke="#39E681"/>
</svg>
