<svg width="78" height="80" viewBox="0 0 78 80" fill="none" xmlns="http://www.w3.org/2000/svg">
<path d="M63.4036 39.8404C63.4036 53.4786 52.5398 64.5197 39.1567 64.5197C25.7735 64.5197 14.9097 53.4786 14.9097 39.8404C14.9097 26.2022 25.7735 15.1611 39.1567 15.1611C52.5398 15.1611 63.4036 26.2022 63.4036 39.8404Z" stroke="#39E681"/>
<path d="M7.01195 33.648L11.4036 33.648L11.4036 46.6719L7.01195 46.6719C3.4155 46.6719 0.5 43.7564 0.5 40.1599C0.5 36.5635 3.4155 33.648 7.01195 33.648Z" stroke="#39E681"/>
<path d="M70.988 33.648L66.5964 33.648L66.5964 46.6719L70.9881 46.6719C74.5845 46.6719 77.5 43.7564 77.5 40.1599C77.5 36.5635 74.5845 33.648 70.988 33.648Z" stroke="#39E681"/>
<path d="M45.8613 6.89157V11.6116L33.0781 11.6116V6.89157C33.0781 3.36161 35.9397 0.5 39.4697 0.5C42.9997 0.5 45.8613 3.3616 45.8613 6.89157Z" stroke="#39E681"/>
<path d="M45.8613 73.1084V68.3884H33.0781V73.1084C33.0781 76.6384 35.9397 79.5 39.4697 79.5C42.9997 79.5 45.8613 76.6384 45.8613 73.1084Z" stroke="#39E681"/>
</svg>
