<svg width="78" height="80" viewBox="0 0 78 80" fill="none" xmlns="http://www.w3.org/2000/svg">
<ellipse cx="39.1567" cy="39.8404" rx="24.747" ry="25.1793" fill="#6F6F6F"/>
<path d="M7.01195 47.1719C3.13936 47.1719 -1.3487e-07 44.0325 -3.0124e-07 40.1599V40.1599C-4.6761e-07 36.2873 3.13936 33.148 7.01195 33.148L11.9036 33.148L11.9036 47.1719L7.01195 47.1719Z" fill="#6F6F6F"/>
<path d="M70.9881 47.1719C74.8606 47.1719 78 44.0325 78 40.1599V40.1599C78 36.2873 74.8606 33.148 70.988 33.148L66.0964 33.148L66.0964 47.1719L70.9881 47.1719Z" fill="#6F6F6F"/>
<path d="M32.5781 6.89157C32.5781 3.08546 35.6636 0 39.4697 0V0C43.2758 0 46.3613 3.08546 46.3613 6.89157V12.1116L32.5781 12.1116V6.89157Z" fill="#6F6F6F"/>
<path d="M32.5781 73.1084C32.5781 76.9145 35.6636 80 39.4697 80V80C43.2758 80 46.3613 76.9145 46.3613 73.1084V67.8884H32.5781V73.1084Z" fill="#6F6F6F"/>
</svg>
