<svg width="77" height="97" viewBox="0 0 77 97" fill="none" xmlns="http://www.w3.org/2000/svg">
<path d="M7.01195 39.5234C3.4155 39.5234 0.5 36.6079 0.5 33.0115C0.5 29.415 3.4155 26.4995 7.01195 26.4995L11.251 26.4995L11.251 39.5234L7.01195 39.5234Z" fill="#39E681" stroke="#39E681"/>
<path d="M7.01195 71.5234C3.4155 71.5234 0.5 68.6079 0.5 65.0115C0.5 61.415 3.4155 58.4995 7.01195 58.4995L11.251 58.4995L11.251 71.5234L7.01195 71.5234Z" fill="#39E681" stroke="#39E681"/>
<path d="M69.9881 39.5234C73.5845 39.5234 76.5 36.6079 76.5 33.0115C76.5 29.415 73.5845 26.4995 69.9881 26.4995L65.749 26.4995L65.749 39.5234L69.9881 39.5234Z" fill="#39E681" stroke="#39E681"/>
<path d="M69.9881 71.5234C73.5845 71.5234 76.5 68.6079 76.5 65.0115C76.5 61.415 73.5845 58.4995 69.9881 58.4995L65.749 58.4995L65.749 71.5234L69.9881 71.5234Z" fill="#39E681" stroke="#39E681"/>
<path d="M32.6606 6.80321C32.6606 3.32205 35.4827 0.5 38.9639 0.5C42.445 0.5 45.2671 3.32204 45.2671 6.80321V11.6116L32.6606 11.6116V6.80321Z" fill="#39E681" stroke="#39E681"/>
<path d="M32.6602 89.3081C32.6602 92.7893 35.4822 95.6113 38.9634 95.6113C42.4445 95.6113 45.2666 92.7893 45.2666 89.3081V84.4998H32.6602V89.3081Z" fill="#39E681" stroke="#39E681"/>
<rect x="14.5" y="14.5" width="48" height="67" fill="#39E681" stroke="#39E681"/>
</svg>
