<svg width="8" height="8" viewBox="0 0 8 8" fill="none" xmlns="http://www.w3.org/2000/svg">
<path d="M7.36667 1.8C7.36667 1.15567 6.84433 0.633333 6.2 0.633333H1.8C1.15567 0.633333 0.633333 1.15567 0.633333 1.8V6.2C0.633333 6.84433 1.15567 7.36667 1.8 7.36667H6.2C6.84433 7.36667 7.36667 6.84433 7.36667 6.2V1.8ZM7 0.166667C7.46024 0.166667 7.83333 0.539763 7.83333 1V7C7.83333 7.46024 7.46024 7.83333 7 7.83333H1C0.539763 7.83333 0.166667 7.46024 0.166667 7V1C0.166667 0.539763 0.539763 0.166667 1 0.166667H7ZM1.76667 4C1.76667 2.76805 2.76805 1.76667 4 1.76667C5.23195 1.76667 6.23333 2.76805 6.23333 4C6.23333 5.23195 5.23195 6.23333 4 6.23333C2.76805 6.23333 1.76667 5.23195 1.76667 4Z" fill="#EF4444" stroke="#EF4444" stroke-width="0.333333"/>
</svg>
