<svg width="20" height="20" viewBox="0 0 20 20" fill="none" xmlns="http://www.w3.org/2000/svg">
<path d="M10.7 7.2C10.5167 7.01667 10.2833 6.925 10 6.925C9.71667 6.925 9.48333 7.01667 9.3 7.2L6.2 10.3C6.01667 10.4833 5.925 10.7127 5.925 10.988C5.925 11.2627 6.025 11.5 6.225 11.7C6.40833 11.8833 6.64167 11.975 6.925 11.975C7.20833 11.975 7.44167 11.8833 7.625 11.7L10 9.325L12.4 11.725C12.5833 11.9083 12.8123 12 13.087 12C13.3623 12 13.6 11.9 13.8 11.7C13.9833 11.5167 14.075 11.2833 14.075 11C14.075 10.7167 13.9833 10.4833 13.8 10.3L10.7 7.2ZM10 8.74228e-07C11.3833 7.53293e-07 12.6833 0.262667 13.9 0.788001C15.1167 1.31267 16.175 2.025 17.075 2.925C17.975 3.825 18.6873 4.88333 19.212 6.1C19.7373 7.31667 20 8.61667 20 10C20 11.3833 19.7373 12.6833 19.212 13.9C18.6873 15.1167 17.975 16.175 17.075 17.075C16.175 17.975 15.1167 18.6877 13.9 19.213C12.6833 19.7377 11.3833 20 10 20C8.61667 20 7.31667 19.7377 6.1 19.213C4.88333 18.6877 3.825 17.975 2.925 17.075C2.025 16.175 1.31267 15.1167 0.788 13.9C0.262666 12.6833 -7.53293e-07 11.3833 -8.74228e-07 10C-9.95163e-07 8.61667 0.262666 7.31667 0.787999 6.1C1.31266 4.88333 2.025 3.825 2.925 2.925C3.825 2.025 4.88333 1.31267 6.1 0.788001C7.31667 0.262668 8.61667 9.95163e-07 10 8.74228e-07Z" fill="#39E681"/>
</svg>
